# xmcd
#
# Track frame offsets: 
#        150
#        11475
#        28350
#        38850
#        54075
#        68550
#        81225
#
# Disc length: 1217 seconds
#
# Revision: 0
# Processed by: cddbd v1.5.2PL0 Copyright (c) Steve Scherf et al.
# Submitted via: ExactAudioCopy v1.1
#
DISCID=4f04bf07
DTITLE=T. Junior - Man in Gray
DYEAR=2012
DGENRE=Country
TTITLE0=Man in Gray
TTITLE1=Play This Guitar
TTITLE2=Me and My Bottle
TTITLE3=The Man Who Hung the Moon
TTITLE4=Hallways
TTITLE5=Too Damn Broke
TTITLE6=Let Me Be
EXTD=
EXTT0=
EXTT1=
EXTT2=
EXTT3=
EXTT4=
EXTT5=
EXTT6=
PLAYORDER=
